<svg xmlns="http://www.w3.org/2000/svg" viewBox="0 0 64 64" width="64" height="64">
  <!-- Left upper wing -->
  <path d="M32 28 C28 18 10 10 8 20 C6 30 18 36 32 34 Z" fill="#2563EB"/>
  <!-- Left lower wing -->
  <path d="M32 34 C20 36 10 44 14 50 C18 56 28 50 32 42 Z" fill="#3B82F6"/>
  <!-- Right upper wing -->
  <path d="M32 28 C36 18 54 10 56 20 C58 30 46 36 32 34 Z" fill="#2563EB"/>
  <!-- Right lower wing -->
  <path d="M32 34 C44 36 54 44 50 50 C46 56 36 50 32 42 Z" fill="#3B82F6"/>
  <!-- Wing highlights -->
  <path d="M32 28 C29 22 16 14 14 22 C12 28 20 33 32 32 Z" fill="#93C5FD" opacity="0.4"/>
  <path d="M32 28 C35 22 48 14 50 22 C52 28 44 33 32 32 Z" fill="#93C5FD" opacity="0.4"/>
  <!-- Body -->
  <ellipse cx="32" cy="36" rx="2.5" ry="12" fill="#1E3A5F"/>
  <!-- Head -->
  <circle cx="32" cy="23" r="3" fill="#1E3A5F"/>
  <!-- Left antenna -->
  <line x1="31" y1="21" x2="24" y2="13" stroke="#1E3A5F" stroke-width="1.5" stroke-linecap="round"/>
  <circle cx="24" cy="13" r="1.8" fill="#1E3A5F"/>
  <!-- Right antenna -->
  <line x1="33" y1="21" x2="40" y2="13" stroke="#1E3A5F" stroke-width="1.5" stroke-linecap="round"/>
  <circle cx="40" cy="13" r="1.8" fill="#1E3A5F"/>
</svg>
